<?xml version="1.0" standalone="no"?>
<!DOCTYPE svg PUBLIC "-//W3C//DTD SVG 20010904//EN"
 "http://www.w3.org/TR/2001/REC-SVG-20010904/DTD/svg10.dtd">
<svg version="1.0" xmlns="http://www.w3.org/2000/svg"
 width="656.000000pt" height="588.000000pt" viewBox="0 0 656.000000 588.000000"
 preserveAspectRatio="xMidYMid meet">
<metadata>
Created by potrace 1.16, written by Peter Selinger 2001-2019
</metadata>
<g transform="translate(0.000000,588.000000) scale(0.100000,-0.100000)"
fill="#FFF" stroke="none">
<path d="M4952 5869 c-535 -72 -980 -424 -1166 -921 -14 -37 -37 -120 -52
-185 -25 -105 -28 -138 -28 -298 -1 -262 32 -413 139 -630 165 -335 446 -585
809 -720 151 -56 217 -65 466 -65 239 0 273 4 433 57 219 71 399 183 567 353
177 178 312 409 373 638 30 114 31 123 31 342 1 286 -21 401 -120 617 -118
261 -393 542 -659 675 -90 46 -266 102 -380 123 -113 20 -317 27 -413 14z
m296 -430 c366 -40 683 -305 823 -689 22 -61 24 -78 24 -295 l0 -230 -32 -82
c-66 -169 -111 -240 -233 -367 -225 -235 -446 -319 -790 -301 -164 9 -217 22
-345 85 -250 123 -436 335 -524 596 -52 155 -55 417 -7 577 80 267 276 499
519 616 195 94 333 116 565 90z"/>
<path d="M2835 5005 c-405 -68 -774 -247 -1055 -512 -250 -234 -409 -473 -528
-793 -62 -169 -91 -297 -103 -470 -5 -74 -12 -620 -16 -1213 l-6 -1077 -113 0
-114 0 0 -180 0 -180 2240 0 2240 0 0 180 0 180 -125 0 -125 0 0 643 c-1 640
-10 970 -29 1037 -13 43 -72 103 -123 125 -88 36 -189 4 -245 -79 l-33 -48 0
-839 0 -839 -1570 0 -1570 0 0 1023 c0 1263 4 1334 86 1569 97 279 278 539
498 716 275 222 642 351 998 352 140 0 195 14 240 61 92 96 65 274 -50 331
-43 21 -61 23 -232 25 -118 1 -214 -3 -265 -12z"/>
<path d="M2610 330 l0 -100 30 0 c27 0 30 -3 30 -30 0 -27 3 -30 30 -30 25 0
30 -4 30 -25 0 -22 4 -25 35 -25 31 0 35 -3 35 -25 0 -22 4 -25 35 -25 31 0
35 -3 35 -25 l0 -25 270 0 270 0 0 25 c0 22 4 25 35 25 31 0 35 3 35 25 0 22
4 25 35 25 31 0 35 3 35 25 0 22 4 25 35 25 32 0 35 2 35 30 0 27 3 30 30 30
l30 0 0 100 0 100 -535 0 -535 0 0 -100z"/>
</g>
</svg>
