<?xml version="1.0" standalone="no"?>
<!DOCTYPE svg PUBLIC "-//W3C//DTD SVG 20010904//EN"
 "http://www.w3.org/TR/2001/REC-SVG-20010904/DTD/svg10.dtd">
<svg version="1.0" xmlns="http://www.w3.org/2000/svg"
 width="512.000000pt" height="512.000000pt" viewBox="0 0 512.000000 512.000000"
 preserveAspectRatio="xMidYMid meet">

<g transform="translate(0.000000,512.000000) scale(0.100000,-0.100000)"
fill="#000000" stroke="none">
<path d="M2425 5114 c-313 -31 -564 -114 -807 -264 -342 -213 -605 -537 -741
-915 -82 -227 -95 -319 -107 -734 -12 -466 -20 -552 -70 -751 -80 -320 -238
-579 -568 -932 -104 -111 -122 -140 -129 -213 -11 -103 49 -209 144 -256 l48
-24 740 -3 741 -3 -6 -62 c-4 -34 -3 -102 1 -150 34 -369 299 -678 668 -779
109 -30 333 -30 442 0 395 108 669 456 670 852 0 54 -2 108 -6 119 -6 20 -2
20 737 23 l743 3 48 24 c129 64 185 234 115 351 -13 21 -83 102 -156 180 -305
326 -435 542 -507 843 -46 194 -58 331 -76 837 -5 157 -15 321 -23 365 -99
570 -455 1048 -976 1310 -142 72 -358 139 -529 165 -80 12 -330 21 -396 14z
m449 -284 c520 -112 954 -488 1126 -973 77 -218 89 -309 100 -752 10 -380 22
-515 65 -693 90 -374 293 -714 634 -1064 l65 -68 -2304 0 -2304 0 65 68 c336
345 542 687 629 1045 48 195 60 321 70 712 9 365 16 446 51 590 140 571 605
1019 1175 1134 148 30 145 29 344 26 143 -2 208 -8 284 -25z m321 -3894 c25
-293 -183 -583 -470 -656 -157 -40 -339 -18 -474 57 -38 21 -99 69 -142 112
-133 133 -199 308 -184 487 l7 84 628 0 628 0 7 -84z"/>
</g>
</svg>
